{"glyphs":{"0":{"ha":878,"x_min":28,"x_max":818,"o":"m 818 207 q 818 162 818 183 q 812 120 818 140 q 792 79 806 100 q 754 38 779 58 q 667 -2 710 3 q 583 -6 625 -7 q 567 -5 575 -6 q 550 -4 558 -4 q 503 -5 526 -4 q 456 -6 479 -6 l 281 -6 q 226 -4 253 -6 q 174 1 200 -3 q 69 55 111 11 q 28 163 28 99 l 28 747 q 29 795 28 772 q 37 839 31 818 q 57 881 43 860 q 97 922 71 901 q 185 964 144 958 q 271 968 225 969 l 515 968 q 594 968 554 968 q 674 961 635 968 q 776 906 735 950 q 818 800 818 863 l 818 207 m 575 238 l 575 726 l 271 726 l 271 238 l 575 238 z "},"1":{"ha":476,"x_min":-15,"x_max":439,"o":"m 439 972 l 439 0 l 197 0 l 197 615 l 158 576 l -15 744 l 215 972 l 439 972 z "},"2":{"ha":888,"x_min":38,"x_max":826,"o":"m 826 1 l 38 1 l 38 392 q 50 455 38 425 q 85 508 63 485 q 138 544 108 531 q 204 558 168 558 l 585 558 l 585 726 l 279 726 l 279 635 l 38 635 l 38 801 q 50 867 38 836 q 85 919 63 897 q 138 955 108 942 q 204 968 168 968 l 660 968 q 725 955 694 968 q 778 919 756 942 q 813 867 800 897 q 826 801 826 836 l 826 482 q 813 417 826 447 q 778 364 800 386 q 725 328 756 342 q 660 315 694 315 l 279 315 l 279 243 l 826 243 l 826 1 z "},"3":{"ha":876,"x_min":25,"x_max":818,"o":"m 572 726 l 268 726 l 268 635 l 25 635 l 25 753 q 31 840 25 800 q 58 908 38 881 q 120 952 79 936 q 232 968 161 968 l 238 968 l 603 971 l 608 971 q 672 967 640 971 q 739 942 704 964 q 793 885 776 917 q 814 814 810 854 q 818 736 818 774 q 817 701 818 718 q 817 667 817 683 q 815 631 815 649 q 815 593 815 613 q 806 529 815 556 q 774 479 797 503 q 806 430 797 457 q 815 365 815 403 l 815 169 q 802 103 815 133 q 766 51 789 74 q 712 15 743 28 q 646 3 681 3 l 192 3 q 126 15 157 3 q 74 51 96 28 q 38 103 51 74 q 25 169 25 133 l 25 336 l 268 336 l 268 244 l 572 244 l 572 381 l 207 381 l 207 624 l 572 624 l 572 726 z "},"4":{"ha":886,"x_min":19,"x_max":844,"o":"m 844 428 l 844 185 l 758 185 l 758 0 l 515 0 l 515 185 l 19 185 l 19 410 l 531 972 l 758 972 l 758 428 l 844 428 m 515 428 l 515 594 l 364 428 l 515 428 z "},"5":{"ha":860,"x_min":21,"x_max":811,"o":"m 811 165 q 798 100 811 131 q 762 47 785 69 q 709 12 739 25 q 644 -1 679 -1 l 188 -1 q 122 12 153 -1 q 69 47 92 25 q 34 100 47 69 q 21 165 21 131 l 21 332 l 264 332 l 264 242 l 568 242 l 568 413 l 21 413 l 21 974 l 811 974 l 811 731 l 264 731 l 264 654 l 644 654 q 709 641 679 654 q 762 606 739 628 q 798 553 785 583 q 811 488 811 522 l 811 165 z "},"6":{"ha":861,"x_min":25,"x_max":815,"o":"m 815 165 q 802 100 815 131 q 766 47 789 69 q 713 12 743 25 q 649 -1 683 -1 l 192 -1 q 126 12 157 -1 q 74 47 96 25 q 38 100 51 69 q 25 165 25 131 l 25 804 q 38 869 25 839 q 74 922 51 900 q 126 958 96 944 q 192 971 157 971 l 649 971 q 713 958 683 971 q 766 922 743 944 q 802 869 789 900 q 815 804 815 839 l 815 638 l 572 638 l 572 729 l 268 729 l 268 606 l 649 606 q 713 592 683 606 q 766 557 743 579 q 802 504 789 535 q 815 439 815 474 l 815 165 m 572 242 l 572 364 l 268 364 l 268 242 l 572 242 z "},"7":{"ha":811,"x_min":21,"x_max":764,"o":"m 764 974 l 764 753 l 401 1 l 131 1 l 483 731 l 21 731 l 21 974 l 764 974 z "},"8":{"ha":867,"x_min":21,"x_max":819,"o":"m 574 242 l 574 365 l 269 365 l 269 242 l 574 242 m 574 606 l 574 729 l 269 729 l 269 606 l 574 606 m 346 971 q 536 970 465 971 q 648 967 607 969 q 708 959 689 965 q 742 943 726 953 q 794 891 776 919 q 815 821 811 863 q 819 735 819 779 q 819 694 819 715 q 818 651 818 672 q 817 614 817 632 q 817 576 817 596 q 808 513 817 539 q 775 463 799 486 q 808 413 799 440 q 817 349 817 386 l 817 165 q 803 100 817 131 q 767 47 790 69 q 715 12 744 25 q 650 -1 685 -1 l 193 -1 q 128 12 158 -1 q 75 47 97 25 q 40 100 53 69 q 26 165 26 131 l 26 349 q 35 413 26 386 q 68 463 44 440 q 35 513 44 486 q 26 576 26 539 q 26 616 26 596 q 24 657 25 636 q 22 695 22 676 q 21 732 21 714 q 22 778 21 756 q 26 822 24 800 q 49 891 32 863 q 101 943 65 919 l 100 943 q 158 967 131 963 q 215 971 185 971 l 346 971 z "},"9":{"ha":864,"x_min":24,"x_max":814,"o":"m 814 167 q 801 101 814 132 q 765 49 788 71 q 712 13 742 26 q 647 0 682 0 l 190 0 q 125 13 156 0 q 72 49 94 26 q 37 101 50 71 q 24 167 24 132 l 24 333 l 267 333 l 267 243 l 571 243 l 571 365 l 190 365 q 125 378 156 365 q 72 413 94 390 q 37 466 50 436 q 24 532 24 496 l 24 806 q 37 871 24 840 q 72 924 50 901 q 125 959 94 946 q 190 972 156 972 l 647 972 q 712 959 682 972 q 765 924 742 946 q 801 871 788 901 q 814 806 814 840 l 814 167 m 571 731 l 267 731 l 267 607 l 571 607 l 571 731 z "},"\r":{"ha":538,"x_min":0,"x_max":0,"o":""},"\u0000":{"ha":0,"x_min":0,"x_max":0,"o":""}," ":{"ha":538,"x_min":0,"x_max":0,"o":""},"!":{"ha":304,"x_min":25,"x_max":268,"o":"m 268 242 l 268 -1 l 25 -1 l 25 242 l 268 242 m 268 971 l 268 272 l 25 272 l 25 971 l 268 971 z "},"\"":{"ha":514,"x_min":13,"x_max":478,"o":"m 256 975 l 256 732 l 194 732 l 154 642 l 13 642 l 13 975 l 256 975 m 478 975 l 478 732 l 417 732 l 376 642 l 236 642 l 236 975 l 478 975 z "},"(":{"ha":300,"x_min":19,"x_max":542,"o":"m 542 -317 q 392 -299 464 -317 q 259 -248 321 -282 q 149 -165 197 -214 q 69 -51 100 -115 q 44 26 54 -18 q 29 121 35 71 q 22 224 24 171 q 19 325 19 276 q 20 372 19 349 q 21 415 21 396 q 22 449 21 433 q 22 479 22 465 l 22 629 q 24 728 22 676 q 31 831 25 781 q 46 928 36 882 q 71 1007 56 974 q 151 1119 101 1069 q 261 1204 200 1169 q 394 1258 322 1239 q 542 1276 465 1276 l 542 1033 q 447 1019 492 1033 q 367 980 403 1006 q 308 919 332 954 q 274 843 283 885 q 271 817 272 836 q 269 769 269 797 q 268 707 268 740 q 268 640 268 674 l 268 318 q 268 251 268 285 q 269 190 268 218 q 271 143 269 163 q 274 117 272 124 q 308 40 283 75 q 367 -20 332 6 q 447 -60 403 -46 q 542 -74 492 -74 l 542 -317 z "},")":{"ha":300,"x_min":-253,"x_max":267,"o":"m 217 1014 q 242 939 232 981 q 257 851 251 897 q 265 756 263 804 q 267 660 267 707 q 266 609 267 633 q 265 561 265 585 q 265 526 265 543 q 264 494 264 510 q 265 465 264 481 q 265 432 265 450 q 266 388 265 411 q 267 342 267 365 q 265 242 267 293 q 257 143 263 192 q 242 51 251 94 q 217 -26 232 7 q 138 -140 186 -89 q 28 -228 89 -192 q -105 -283 -33 -264 q -253 -303 -176 -303 l -253 -60 q -158 -46 -203 -60 q -78 -6 -114 -32 q -18 55 -43 19 q 15 132 7 90 l 14 129 q 17 167 15 139 q 19 233 18 196 q 19 312 19 269 q 20 391 19 354 q 21 456 21 428 q 21 494 21 485 q 21 533 21 504 q 20 599 21 561 q 19 678 19 636 q 19 757 19 719 q 17 822 18 794 q 14 860 15 850 l 15 857 q -18 934 7 899 q -78 995 -43 969 q -158 1035 -114 1021 q -253 1049 -203 1049 l -253 1292 q -105 1272 -176 1292 q 28 1217 -33 1253 q 138 1129 89 1181 q 217 1014 186 1078 z "},",":{"ha":288,"x_min":10,"x_max":251,"o":"m 251 243 l 251 0 l 190 0 l 150 -92 l 10 -92 l 10 243 l 251 243 z "},"-":{"ha":490,"x_min":14,"x_max":454,"o":"m 454 636 l 454 393 l 14 393 l 14 636 l 454 636 z "},".":{"ha":288,"x_min":17,"x_max":258,"o":"m 258 243 l 258 0 l 17 0 l 17 243 l 258 243 z "},"/":{"ha":608,"x_min":-21,"x_max":611,"o":"m 611 971 l 239 0 l -21 0 l 353 971 l 611 971 z "},":":{"ha":288,"x_min":17,"x_max":261,"o":"m 258 243 l 258 0 l 17 0 l 17 243 l 258 243 m 261 972 l 261 731 l 18 731 l 18 972 l 261 972 z "},";":{"ha":288,"x_min":10,"x_max":261,"o":"m 261 972 l 261 731 l 18 731 l 18 972 l 261 972 m 251 243 l 251 0 l 190 0 l 150 -92 l 10 -92 l 10 243 l 251 243 z "},"?":{"ha":808,"x_min":17,"x_max":761,"o":"m 486 243 l 486 0 l 244 0 l 244 243 l 486 243 m 761 561 q 752 488 761 522 q 724 426 743 453 q 672 383 704 399 q 593 367 639 367 l 486 367 l 486 274 l 244 274 l 244 442 q 257 507 244 476 q 292 560 269 538 q 345 595 315 582 q 411 608 375 608 l 518 608 l 518 731 l 258 731 l 258 640 l 17 640 l 17 807 q 29 872 17 842 q 65 925 42 903 q 117 960 88 947 q 183 974 147 974 l 593 974 q 658 960 628 974 q 712 925 689 947 q 748 872 735 903 q 761 807 761 842 l 761 561 z "},"A":{"ha":947,"x_min":-11,"x_max":933,"o":"m 581 974 l 933 1 l 674 1 l 608 183 l 313 183 l 247 1 l -11 1 l 342 974 l 581 974 m 519 426 q 506 465 511 449 q 494 500 500 482 q 480 538 488 518 q 461 588 472 558 l 401 426 l 519 426 z "},"B":{"ha":894,"x_min":42,"x_max":836,"o":"m 589 729 l 283 729 l 283 606 l 589 606 l 589 729 m 831 822 q 835 778 833 800 q 836 732 836 756 q 835 695 836 714 q 833 657 835 676 q 831 616 832 636 q 831 576 831 596 q 822 513 831 539 q 789 463 813 486 q 822 413 813 440 q 831 349 831 386 l 831 165 q 817 100 831 131 q 782 47 804 69 q 729 12 760 25 q 664 -1 699 -1 l 42 -1 l 42 971 l 635 971 q 696 967 667 971 q 757 943 725 964 l 756 943 q 810 892 793 919 q 831 822 826 864 m 589 242 l 589 364 l 283 364 l 283 242 l 589 242 z "},"C":{"ha":864,"x_min":21,"x_max":815,"o":"m 654 972 q 749 942 717 968 q 797 876 782 915 q 814 790 813 836 q 815 700 815 743 l 815 643 l 572 643 l 572 733 l 268 733 l 268 246 l 572 246 l 572 338 l 815 338 l 815 289 q 813 195 815 246 q 794 101 810 144 q 742 30 778 58 q 640 1 707 1 l 288 1 q 215 3 260 1 q 127 22 171 6 q 52 76 83 39 q 21 181 21 113 l 21 660 q 24 738 21 704 q 32 814 26 771 q 67 909 40 876 q 131 957 94 942 q 212 974 168 972 q 297 975 256 975 l 329 975 q 388 974 364 975 q 439 974 413 974 q 519 972 472 972 q 651 972 567 972 l 654 972 z "},"D":{"ha":875,"x_min":28,"x_max":818,"o":"m 692 967 q 763 933 738 953 q 799 888 788 913 q 813 833 810 863 q 815 772 815 804 q 816 756 815 764 q 817 740 817 749 q 818 694 818 721 q 818 649 818 668 l 818 240 q 817 167 818 201 q 803 103 815 132 q 763 50 790 74 q 686 10 736 26 q 638 5 674 7 q 561 2 601 3 q 486 1 521 1 q 442 1 451 1 l 28 1 l 28 974 l 318 974 q 379 974 349 974 q 442 975 410 975 q 487 975 451 975 q 563 974 522 975 q 641 972 604 974 q 690 967 678 969 l 692 967 m 575 243 l 575 731 l 271 731 l 271 243 l 575 243 z "},"E":{"ha":825,"x_min":28,"x_max":772,"o":"m 772 242 l 772 -1 l 28 -1 l 28 971 l 772 971 l 772 729 l 271 729 l 271 606 l 682 606 l 682 364 l 271 364 l 271 242 l 772 242 z "},"F":{"ha":865,"x_min":36,"x_max":825,"o":"m 825 731 l 278 731 l 278 608 l 688 608 l 688 367 l 278 367 l 278 1 l 36 1 l 36 974 l 825 974 l 825 731 z "},"G":{"ha":904,"x_min":39,"x_max":828,"o":"m 665 963 q 760 928 728 954 q 808 864 793 901 q 825 783 824 826 q 826 697 826 739 l 826 636 l 585 636 l 585 728 l 279 728 l 279 240 l 585 240 l 585 364 l 357 364 l 357 604 l 826 604 l 826 265 q 827 244 826 254 q 828 224 828 235 q 822 147 828 185 q 799 77 817 108 q 749 26 782 46 q 664 3 717 6 q 589 -1 628 0 q 518 -1 550 -1 q 479 -1 499 -1 q 440 0 460 0 q 392 1 417 0 q 340 1 368 1 l 319 1 q 226 3 275 1 q 137 19 178 4 q 69 65 96 33 q 42 158 42 97 q 41 256 42 207 q 40 353 40 304 q 40 435 40 394 q 39 515 39 475 q 43 800 39 656 q 72 900 44 865 q 138 950 99 935 q 225 967 178 965 q 315 969 272 969 l 340 969 q 481 969 426 969 q 569 969 535 969 q 624 967 603 968 q 665 963 644 965 z "},"H":{"ha":899,"x_min":40,"x_max":829,"o":"m 829 974 l 829 1 l 588 1 l 588 367 l 282 367 l 282 1 l 40 1 l 40 974 l 282 974 l 282 608 l 588 608 l 588 974 l 829 974 z "},"I":{"ha":306,"x_min":25,"x_max":268,"o":"m 268 971 l 268 -1 l 25 -1 l 25 971 l 268 971 z "},"J":{"ha":728,"x_min":19,"x_max":674,"o":"m 261 335 l 261 243 l 429 243 l 429 974 l 672 974 l 672 210 q 664 122 674 164 q 607 42 654 81 q 524 4 567 11 q 443 0 482 -3 q 426 1 436 0 q 410 1 417 1 l 214 1 q 100 24 140 1 q 42 83 60 46 q 22 169 24 121 q 19 271 19 218 l 19 335 l 261 335 z "},"K":{"ha":789,"x_min":26,"x_max":799,"o":"m 799 972 l 429 486 l 799 0 l 496 0 l 268 299 l 268 0 l 26 0 l 26 972 l 268 972 l 268 676 q 383 826 326 751 q 496 972 440 900 l 799 972 z "},"L":{"ha":751,"x_min":36,"x_max":690,"o":"m 690 243 l 690 0 l 36 0 l 36 972 l 279 972 l 279 243 l 690 243 z "},"M":{"ha":1033,"x_min":35,"x_max":963,"o":"m 963 972 l 963 0 l 719 0 l 719 486 q 652 378 686 432 q 588 274 618 324 l 410 274 l 278 488 l 278 0 l 35 0 l 35 972 l 265 972 l 499 593 l 733 972 l 963 972 z "},"N":{"ha":893,"x_min":36,"x_max":825,"o":"m 825 969 l 825 -3 l 597 -3 l 278 497 l 278 -3 l 36 -3 l 36 969 l 264 969 l 583 471 l 583 969 l 825 969 z "},"O":{"ha":878,"x_min":28,"x_max":818,"o":"m 818 207 q 818 162 818 183 q 812 120 818 140 q 792 79 806 100 q 754 38 779 58 q 667 -2 710 3 q 583 -6 625 -7 q 567 -5 575 -6 q 550 -4 558 -4 q 503 -5 526 -4 q 456 -6 479 -6 l 281 -6 q 226 -4 253 -6 q 174 1 200 -3 q 69 55 111 11 q 28 163 28 99 l 28 747 q 29 795 28 772 q 37 839 31 818 q 57 881 43 860 q 97 922 71 901 q 185 964 144 958 q 271 968 225 969 l 515 968 q 594 968 554 968 q 674 961 635 968 q 776 906 735 950 q 818 800 818 863 l 818 207 m 575 238 l 575 726 l 271 726 l 271 238 l 575 238 z "},"P":{"ha":864,"x_min":38,"x_max":801,"o":"m 799 713 q 799 674 799 693 q 800 636 799 656 q 801 595 800 615 q 801 554 801 575 q 801 510 801 533 q 799 468 800 488 q 777 398 794 426 q 725 346 760 369 q 664 322 693 325 q 603 318 635 318 l 281 318 l 281 -1 l 38 -1 l 38 971 l 626 971 q 695 958 664 971 q 749 924 726 946 q 785 869 772 901 q 799 800 799 838 l 799 713 m 557 561 l 557 729 l 281 729 l 281 561 l 557 561 z "},"Q":{"ha":867,"x_min":22,"x_max":864,"o":"m 267 243 l 349 243 l 267 356 l 267 243 m 572 731 l 267 731 l 267 411 l 526 411 l 572 346 l 572 731 m 522 0 l 451 0 q 410 -1 435 0 q 356 -1 385 -1 q 283 -1 319 -1 q 213 2 246 0 q 154 8 179 4 q 117 18 129 11 q 69 59 88 33 q 40 117 50 85 q 26 184 29 149 q 22 253 22 219 q 22 290 22 272 q 24 324 22 308 q 25 344 25 335 q 25 364 25 354 l 25 710 q 28 818 25 769 q 51 901 32 867 q 112 954 71 936 q 229 972 153 972 l 576 972 q 692 964 646 972 q 765 931 738 956 q 803 863 792 907 q 814 746 814 818 l 814 206 q 812 130 815 165 q 778 61 808 94 q 800 31 788 47 q 824 -3 813 14 q 847 -34 836 -19 q 864 -58 857 -49 l 565 -58 l 522 0 z "},"R":{"ha":851,"x_min":29,"x_max":821,"o":"m 803 710 q 803 676 803 693 q 804 644 804 660 q 805 617 804 631 q 806 592 806 604 q 804 531 806 561 q 800 469 803 501 q 777 401 794 429 q 726 349 760 372 q 684 328 704 333 q 642 322 664 324 l 821 1 l 544 1 l 367 321 l 272 321 l 272 1 l 29 1 l 29 974 l 626 974 q 696 960 664 974 q 751 923 728 947 q 789 866 775 899 q 803 796 803 833 l 803 710 m 557 563 l 557 731 l 272 731 l 272 563 l 557 563 z "},"S":{"ha":893,"x_min":36,"x_max":825,"o":"m 825 168 q 812 102 825 132 q 776 49 799 72 q 724 14 754 26 q 658 1 693 1 l 203 1 q 137 14 167 1 q 84 49 107 26 q 49 102 61 72 q 36 168 36 132 l 36 335 l 278 335 l 278 243 l 583 243 l 583 367 l 203 367 q 137 379 167 367 q 84 415 107 392 q 49 467 61 438 q 36 533 36 497 l 36 807 q 49 872 36 842 q 84 925 61 903 q 137 960 107 947 q 203 974 167 974 l 658 974 q 724 960 693 974 q 776 925 754 947 q 812 872 799 903 q 825 807 825 842 l 825 640 l 583 640 l 583 731 l 278 731 l 278 608 l 658 608 q 724 595 693 608 q 776 560 754 582 q 812 507 799 538 q 825 442 825 476 l 825 168 z "},"T":{"ha":835,"x_min":10,"x_max":800,"o":"m 800 971 l 800 729 l 526 729 l 526 -1 l 283 -1 l 283 729 l 10 729 l 10 971 l 800 971 z "},"U":{"ha":899,"x_min":42,"x_max":831,"o":"m 283 971 l 283 242 l 589 242 l 589 971 l 831 971 l 831 264 q 830 238 831 258 q 828 195 829 218 q 827 151 828 172 q 825 125 826 131 q 787 49 811 76 q 715 7 763 22 l 717 7 q 694 3 710 4 q 655 0 678 1 q 606 -1 632 -1 q 553 -1 579 -1 l 319 -1 q 269 -1 294 -1 q 221 0 243 -1 q 183 3 199 1 q 161 7 167 4 l 163 7 q 88 46 114 22 q 50 118 63 69 q 42 180 43 150 q 42 238 42 210 l 42 971 l 283 971 z "},"V":{"ha":938,"x_min":-21,"x_max":922,"o":"m 922 972 l 569 0 l 331 0 l -21 972 l 239 972 l 451 388 l 664 972 l 922 972 z "},"W":{"ha":1313,"x_min":-7,"x_max":1283,"o":"m 1283 972 l 1049 0 l 747 0 l 638 456 l 529 0 l 228 0 l -7 972 l 242 972 l 378 411 q 446 694 411 551 q 513 972 481 836 l 763 972 l 899 407 q 967 692 933 547 q 1035 972 1001 836 l 1283 972 z "},"X":{"ha":786,"x_min":-26,"x_max":786,"o":"m 518 489 l 786 0 l 511 0 l 379 239 q 314 117 347 178 q 249 0 281 57 l -26 0 l 242 489 l -24 972 l 250 972 l 379 739 l 508 972 l 783 972 l 518 489 z "},"Y":{"ha":913,"x_min":-31,"x_max":910,"o":"m 910 972 l 561 419 l 561 0 l 319 0 l 319 419 l -31 972 l 256 972 l 440 682 l 624 972 l 910 972 z "},"Z":{"ha":874,"x_min":26,"x_max":817,"o":"m 817 242 l 817 -1 l 26 -1 l 26 222 l 476 729 l 26 729 l 26 971 l 817 971 l 817 749 l 367 242 l 817 242 z "},"a":{"ha":947,"x_min":-11,"x_max":933,"o":"m 581 974 l 933 1 l 674 1 l 608 183 l 313 183 l 247 1 l -11 1 l 342 974 l 581 974 m 519 426 q 506 465 511 449 q 494 500 500 482 q 480 538 488 518 q 461 588 472 558 l 401 426 l 519 426 z "},"b":{"ha":894,"x_min":42,"x_max":836,"o":"m 589 729 l 283 729 l 283 606 l 589 606 l 589 729 m 831 822 q 835 778 833 800 q 836 732 836 756 q 835 695 836 714 q 833 657 835 676 q 831 616 832 636 q 831 576 831 596 q 822 513 831 539 q 789 463 813 486 q 822 413 813 440 q 831 349 831 386 l 831 165 q 817 100 831 131 q 782 47 804 69 q 729 12 760 25 q 664 -1 699 -1 l 42 -1 l 42 971 l 635 971 q 696 967 667 971 q 757 943 725 964 l 756 943 q 810 892 793 919 q 831 822 826 864 m 589 242 l 589 364 l 283 364 l 283 242 l 589 242 z "},"c":{"ha":864,"x_min":21,"x_max":815,"o":"m 654 972 q 749 942 717 968 q 797 876 782 915 q 814 790 813 836 q 815 700 815 743 l 815 643 l 572 643 l 572 733 l 268 733 l 268 246 l 572 246 l 572 338 l 815 338 l 815 289 q 813 195 815 246 q 794 101 810 144 q 742 30 778 58 q 640 1 707 1 l 288 1 q 215 3 260 1 q 127 22 171 6 q 52 76 83 39 q 21 181 21 113 l 21 660 q 24 738 21 704 q 32 814 26 771 q 67 909 40 876 q 131 957 94 942 q 212 974 168 972 q 297 975 256 975 l 329 975 q 388 974 364 975 q 439 974 413 974 q 519 972 472 972 q 651 972 567 972 l 654 972 z "},"d":{"ha":875,"x_min":28,"x_max":818,"o":"m 692 967 q 763 933 738 953 q 799 888 788 913 q 813 833 810 863 q 815 772 815 804 q 816 756 815 764 q 817 740 817 749 q 818 694 818 721 q 818 649 818 668 l 818 240 q 817 167 818 201 q 803 103 815 132 q 763 50 790 74 q 686 10 736 26 q 638 5 674 7 q 561 2 601 3 q 486 1 521 1 q 442 1 451 1 l 28 1 l 28 974 l 318 974 q 379 974 349 974 q 442 975 410 975 q 487 975 451 975 q 563 974 522 975 q 641 972 604 974 q 690 967 678 969 l 692 967 m 575 243 l 575 731 l 271 731 l 271 243 l 575 243 z "},"e":{"ha":825,"x_min":28,"x_max":772,"o":"m 772 242 l 772 -1 l 28 -1 l 28 971 l 772 971 l 772 729 l 271 729 l 271 606 l 682 606 l 682 364 l 271 364 l 271 242 l 772 242 z "},"f":{"ha":865,"x_min":36,"x_max":825,"o":"m 825 731 l 278 731 l 278 608 l 688 608 l 688 367 l 278 367 l 278 1 l 36 1 l 36 974 l 825 974 l 825 731 z "},"g":{"ha":904,"x_min":39,"x_max":828,"o":"m 665 963 q 760 928 728 954 q 808 864 793 901 q 825 783 824 826 q 826 697 826 739 l 826 636 l 585 636 l 585 728 l 279 728 l 279 240 l 585 240 l 585 364 l 357 364 l 357 604 l 826 604 l 826 265 q 827 244 826 254 q 828 224 828 235 q 822 147 828 185 q 799 77 817 108 q 749 26 782 46 q 664 3 717 6 q 589 -1 628 0 q 518 -1 550 -1 q 479 -1 499 -1 q 440 0 460 0 q 392 1 417 0 q 340 1 368 1 l 319 1 q 226 3 275 1 q 137 19 178 4 q 69 65 96 33 q 42 158 42 97 q 41 256 42 207 q 40 353 40 304 q 40 435 40 394 q 39 515 39 475 q 43 800 39 656 q 72 900 44 865 q 138 950 99 935 q 225 967 178 965 q 315 969 272 969 l 340 969 q 481 969 426 969 q 569 969 535 969 q 624 967 603 968 q 665 963 644 965 z "},"h":{"ha":899,"x_min":40,"x_max":829,"o":"m 829 974 l 829 1 l 588 1 l 588 367 l 282 367 l 282 1 l 40 1 l 40 974 l 282 974 l 282 608 l 588 608 l 588 974 l 829 974 z "},"i":{"ha":306,"x_min":25,"x_max":268,"o":"m 268 971 l 268 -1 l 25 -1 l 25 971 l 268 971 z "},"j":{"ha":728,"x_min":19,"x_max":674,"o":"m 261 335 l 261 243 l 429 243 l 429 974 l 672 974 l 672 210 q 664 122 674 164 q 607 42 654 81 q 524 4 567 11 q 443 0 482 -3 q 426 1 436 0 q 410 1 417 1 l 214 1 q 100 24 140 1 q 42 83 60 46 q 22 169 24 121 q 19 271 19 218 l 19 335 l 261 335 z "},"k":{"ha":789,"x_min":26,"x_max":799,"o":"m 799 972 l 429 486 l 799 0 l 496 0 l 268 299 l 268 0 l 26 0 l 26 972 l 268 972 l 268 676 q 383 826 326 751 q 496 972 440 900 l 799 972 z "},"l":{"ha":751,"x_min":36,"x_max":690,"o":"m 690 243 l 690 0 l 36 0 l 36 972 l 279 972 l 279 243 l 690 243 z "},"m":{"ha":1033,"x_min":35,"x_max":963,"o":"m 963 972 l 963 0 l 719 0 l 719 486 q 652 378 686 432 q 588 274 618 324 l 410 274 l 278 488 l 278 0 l 35 0 l 35 972 l 265 972 l 499 593 l 733 972 l 963 972 z "},"n":{"ha":893,"x_min":36,"x_max":825,"o":"m 825 969 l 825 -3 l 597 -3 l 278 497 l 278 -3 l 36 -3 l 36 969 l 264 969 l 583 471 l 583 969 l 825 969 z "},"o":{"ha":878,"x_min":28,"x_max":818,"o":"m 818 207 q 818 162 818 183 q 812 120 818 140 q 792 79 806 100 q 754 38 779 58 q 667 -2 710 3 q 583 -6 625 -7 q 567 -5 575 -6 q 550 -4 558 -4 q 503 -5 526 -4 q 456 -6 479 -6 l 281 -6 q 226 -4 253 -6 q 174 1 200 -3 q 69 55 111 11 q 28 163 28 99 l 28 747 q 29 795 28 772 q 37 839 31 818 q 57 881 43 860 q 97 922 71 901 q 185 964 144 958 q 271 968 225 969 l 515 968 q 594 968 554 968 q 674 961 635 968 q 776 906 735 950 q 818 800 818 863 l 818 207 m 575 238 l 575 726 l 271 726 l 271 238 l 575 238 z "},"p":{"ha":864,"x_min":38,"x_max":801,"o":"m 799 713 q 799 674 799 693 q 800 636 799 656 q 801 595 800 615 q 801 554 801 575 q 801 510 801 533 q 799 468 800 488 q 777 398 794 426 q 725 346 760 369 q 664 322 693 325 q 603 318 635 318 l 281 318 l 281 -1 l 38 -1 l 38 971 l 626 971 q 695 958 664 971 q 749 924 726 946 q 785 869 772 901 q 799 800 799 838 l 799 713 m 557 561 l 557 729 l 281 729 l 281 561 l 557 561 z "},"q":{"ha":867,"x_min":22,"x_max":864,"o":"m 267 243 l 349 243 l 267 356 l 267 243 m 572 731 l 267 731 l 267 411 l 526 411 l 572 346 l 572 731 m 522 0 l 451 0 q 410 -1 435 0 q 356 -1 385 -1 q 283 -1 319 -1 q 213 2 246 0 q 154 8 179 4 q 117 18 129 11 q 69 59 88 33 q 40 117 50 85 q 26 184 29 149 q 22 253 22 219 q 22 290 22 272 q 24 324 22 308 q 25 344 25 335 q 25 364 25 354 l 25 710 q 28 818 25 769 q 51 901 32 867 q 112 954 71 936 q 229 972 153 972 l 576 972 q 692 964 646 972 q 765 931 738 956 q 803 863 792 907 q 814 746 814 818 l 814 206 q 812 130 815 165 q 778 61 808 94 q 800 31 788 47 q 824 -3 813 14 q 847 -34 836 -19 q 864 -58 857 -49 l 565 -58 l 522 0 z "},"r":{"ha":851,"x_min":29,"x_max":821,"o":"m 803 710 q 803 676 803 693 q 804 644 804 660 q 805 617 804 631 q 806 592 806 604 q 804 531 806 561 q 800 469 803 501 q 777 401 794 429 q 726 349 760 372 q 684 328 704 333 q 642 322 664 324 l 821 1 l 544 1 l 367 321 l 272 321 l 272 1 l 29 1 l 29 974 l 626 974 q 696 960 664 974 q 751 923 728 947 q 789 866 775 899 q 803 796 803 833 l 803 710 m 557 563 l 557 731 l 272 731 l 272 563 l 557 563 z "},"s":{"ha":893,"x_min":36,"x_max":825,"o":"m 825 168 q 812 102 825 132 q 776 49 799 72 q 724 14 754 26 q 658 1 693 1 l 203 1 q 137 14 167 1 q 84 49 107 26 q 49 102 61 72 q 36 168 36 132 l 36 335 l 278 335 l 278 243 l 583 243 l 583 367 l 203 367 q 137 379 167 367 q 84 415 107 392 q 49 467 61 438 q 36 533 36 497 l 36 807 q 49 872 36 842 q 84 925 61 903 q 137 960 107 947 q 203 974 167 974 l 658 974 q 724 960 693 974 q 776 925 754 947 q 812 872 799 903 q 825 807 825 842 l 825 640 l 583 640 l 583 731 l 278 731 l 278 608 l 658 608 q 724 595 693 608 q 776 560 754 582 q 812 507 799 538 q 825 442 825 476 l 825 168 z "},"t":{"ha":835,"x_min":10,"x_max":800,"o":"m 800 971 l 800 729 l 526 729 l 526 -1 l 283 -1 l 283 729 l 10 729 l 10 971 l 800 971 z "},"u":{"ha":899,"x_min":42,"x_max":831,"o":"m 283 971 l 283 242 l 589 242 l 589 971 l 831 971 l 831 264 q 830 238 831 258 q 828 195 829 218 q 827 151 828 172 q 825 125 826 131 q 787 49 811 76 q 715 7 763 22 l 717 7 q 694 3 710 4 q 655 0 678 1 q 606 -1 632 -1 q 553 -1 579 -1 l 319 -1 q 269 -1 294 -1 q 221 0 243 -1 q 183 3 199 1 q 161 7 167 4 l 163 7 q 88 46 114 22 q 50 118 63 69 q 42 180 43 150 q 42 238 42 210 l 42 971 l 283 971 z "},"v":{"ha":938,"x_min":-21,"x_max":922,"o":"m 922 972 l 569 0 l 331 0 l -21 972 l 239 972 l 451 388 l 664 972 l 922 972 z "},"w":{"ha":1313,"x_min":-7,"x_max":1283,"o":"m 1283 972 l 1049 0 l 747 0 l 638 456 l 529 0 l 228 0 l -7 972 l 242 972 l 378 411 q 446 694 411 551 q 513 972 481 836 l 763 972 l 899 407 q 967 692 933 547 q 1035 972 1001 836 l 1283 972 z "},"x":{"ha":786,"x_min":-26,"x_max":786,"o":"m 518 489 l 786 0 l 511 0 l 379 239 q 314 117 347 178 q 249 0 281 57 l -26 0 l 242 489 l -24 972 l 250 972 l 379 739 l 508 972 l 783 972 l 518 489 z "},"y":{"ha":913,"x_min":-31,"x_max":910,"o":"m 910 972 l 561 419 l 561 0 l 319 0 l 319 419 l -31 972 l 256 972 l 440 682 l 624 972 l 910 972 z "},"z":{"ha":874,"x_min":26,"x_max":817,"o":"m 817 242 l 817 -1 l 26 -1 l 26 222 l 476 729 l 26 729 l 26 971 l 817 971 l 817 749 l 367 242 l 817 242 z "}}}
